<?xml version="1.0" standalone="no"?>
<!DOCTYPE svg PUBLIC "-//W3C//DTD SVG 20010904//EN"
 "http://www.w3.org/TR/2001/REC-SVG-20010904/DTD/svg10.dtd">
<svg version="1.0" xmlns="http://www.w3.org/2000/svg"
 width="160.000000pt" height="50.000000pt" viewBox="0 0 160.000000 50.000000"
 preserveAspectRatio="xMidYMid meet">

<g transform="translate(0.000000,50.000000) scale(0.100000,-0.100000)"
fill="#000000" stroke="none">
<path d="M767 474 c-26 -14 -45 -29 -42 -34 4 -6 -2 -10 -12 -11 -10 0 -13 -3
-6 -5 6 -3 28 2 48 10 46 19 45 19 45 2 0 -8 -10 -16 -22 -18 -13 -2 50 -9
139 -16 89 -7 177 -17 195 -23 42 -12 185 -12 192 0 9 14 -14 19 -64 14 -69
-8 -364 32 -342 46 6 4 -10 18 -36 33 l-47 26 -48 -24z m80 -12 c6 -4 -11 -7
-37 -7 -26 0 -43 3 -37 7 7 4 23 8 37 8 14 0 30 -4 37 -8z m33 -33 c52 -19 53
-20 15 -15 -22 3 -48 6 -57 6 -10 0 -18 7 -18 15 0 8 1 15 3 15 1 -1 27 -10
57 -21z"/>
<path d="M550 404 c-47 -8 -117 -13 -157 -10 -59 4 -73 2 -73 -10 0 -12 47
-14 303 -12 283 2 290 3 112 8 -154 4 -178 6 -126 13 35 4 82 7 104 7 55 0 44
6 -23 13 -30 3 -93 -1 -140 -9z"/>
<path d="M565 353 c11 -3 23 -10 28 -17 5 -8 10 -7 18 4 8 11 12 12 16 3 6
-16 393 -19 393 -3 0 16 18 12 22 -5 2 -13 6 -12 20 5 l18 20 -268 -1 c-147
-1 -258 -4 -247 -6z"/>
<path d="M290 331 c0 -5 9 -12 20 -16 11 -3 19 -12 17 -18 -2 -13 10 -13 63 2
31 8 32 9 9 10 -15 1 -29 8 -33 16 -6 16 -76 22 -76 6z"/>
<path d="M1195 303 c11 -2 32 -9 47 -15 15 -5 33 -6 40 -2 16 10 -22 22 -72
22 -19 0 -26 -2 -15 -5z"/>
<path d="M1295 261 c-72 -20 -85 -28 -85 -46 0 -23 44 -28 100 -12 72 21 59
-1 -20 -32 -35 -14 -65 -31 -67 -38 -11 -33 153 49 193 96 31 38 21 39 -56 6
-61 -26 -110 -32 -110 -15 0 10 91 40 121 40 10 0 21 5 24 10 9 15 -31 11
-100 -9z"/>
<path d="M55 226 c48 -48 53 -48 93 -13 l22 20 23 -20 c38 -34 42 -33 87 12
l44 45 -38 0 c-31 0 -36 -3 -27 -14 9 -10 8 -16 -4 -26 -13 -11 -19 -9 -38 9
-29 27 -45 27 -75 -1 l-23 -23 -17 23 c-10 13 -33 25 -55 29 l-37 6 45 -47z"/>
<path d="M388 263 c-35 -5 -37 -23 -3 -23 14 0 25 5 25 11 0 6 12 9 28 7 42
-5 28 -22 -24 -30 -99 -14 -68 -48 41 -42 55 2 60 4 63 27 6 46 -41 63 -130
50z m82 -53 c0 -5 -13 -10 -30 -10 -16 0 -30 5 -30 10 0 6 14 10 30 10 17 0
30 -4 30 -10z"/>
<path d="M570 239 c9 -16 8 -25 -6 -40 -16 -18 -16 -19 7 -19 33 0 45 10 53
43 6 27 9 28 46 22 26 -4 40 -3 40 4 0 7 -28 11 -75 11 -74 0 -75 -1 -65 -21z"/>
<path d="M763 253 c-7 -2 -13 -14 -13 -24 0 -44 127 -63 190 -29 21 11 27 44
10 55 -17 10 -47 -4 -53 -25 -7 -25 -54 -45 -73 -29 -7 6 -14 20 -16 32 -3 22
-22 30 -45 20z"/>
<path d="M1008 225 c3 -29 8 -35 27 -35 18 0 24 6 27 28 3 23 8 27 41 30 35 3
37 2 37 -27 0 -26 4 -31 25 -31 19 0 25 5 25 23 0 39 -19 47 -105 47 l-81 0 4
-35z"/>
<path d="M1440 230 c-42 -26 69 -32 118 -6 26 15 25 15 -38 15 -36 1 -72 -3
-80 -9z"/>
<path d="M579 133 c5 -30 11 -39 29 -41 21 -3 22 0 20 37 -3 37 -6 41 -29 41
-24 0 -25 -2 -20 -37z"/>
<path d="M655 166 c6 -2 23 -7 38 -10 36 -8 34 -46 -3 -58 -18 -6 -14 -6 14
-3 22 2 47 11 55 20 14 13 14 17 -1 31 -9 9 -38 18 -64 20 -27 2 -44 2 -39 0z"/>
<path d="M513 137 c9 -8 17 -22 17 -31 0 -9 7 -16 15 -16 9 0 15 9 15 25 0 15
-6 25 -14 25 -8 0 -23 3 -33 6 -17 5 -17 5 0 -9z"/>
<path d="M1094 139 c-36 -10 -52 -37 -29 -45 9 -4 35 -3 59 0 31 5 45 12 49
26 8 29 -21 36 -79 19z m40 -24 c-4 -8 -17 -15 -30 -15 -42 0 -25 27 18 29 12
1 15 -4 12 -14z"/>
<path d="M427 114 c-4 -21 -1 -25 16 -22 11 2 24 13 28 26 7 19 5 22 -15 22
-17 0 -25 -7 -29 -26z"/>
<path d="M792 128 c-21 -21 6 -38 62 -37 51 2 51 2 11 8 -31 5 -39 10 -37 24
3 19 -18 23 -36 5z"/>
<path d="M870 130 c0 -5 9 -10 20 -10 11 0 20 5 20 10 0 6 -9 10 -20 10 -11 0
-20 -4 -20 -10z"/>
<path d="M930 131 c0 -5 15 -13 33 -16 17 -4 35 -12 38 -18 4 -5 14 -7 24 -4
24 10 8 27 -25 27 -16 0 -32 5 -35 10 -8 13 -35 13 -35 1z"/>
<path d="M1385 114 c-137 -32 -333 -61 -500 -74 -170 -12 -249 -12 -220 0 14
6 -2 9 -50 9 -85 1 -172 14 -283 42 -87 22 -119 19 -61 -5 29 -12 101 -25 224
-39 18 -3 8 -5 -25 -7 l-55 -3 60 -7 c33 -4 175 -8 316 -9 413 -2 672 35 728
103 12 14 10 16 -10 15 -13 -1 -69 -12 -124 -25z"/>
<path d="M938 93 c7 -3 16 -2 19 1 4 3 -2 6 -13 5 -11 0 -14 -3 -6 -6z"/>
<path d="M373 43 c9 -2 23 -2 30 0 6 3 -1 5 -18 5 -16 0 -22 -2 -12 -5z"/>
</g>
</svg>
